<!-- icon666.com - MILLIONS vector ICONS FREE --><svg id="Line" viewBox="0 0 64 64" xmlns="http://www.w3.org/2000/svg"><g><path d="m55.457 38.738h-3.791v-32.136c0-1.956-1.652-3.608-3.607-3.608h-4.904c-1.989 0-3.607 1.619-3.607 3.608v6.099c-.701-.293-1.428-.534-2.167-.746v-2.434c0-2.974-2.42-5.394-5.394-5.394-2.959 0-5.366 2.419-5.366 5.394v2.429c-.739.21-1.465.452-2.166.744v-6.092c0-1.989-1.619-3.608-3.608-3.608h-4.904c-1.955 0-3.607 1.652-3.607 3.608v32.137h-3.793c-2.302 0-4.175 1.873-4.175 4.175v9.921c0 2.302 1.873 4.175 4.175 4.175h3.863c.346 2.258 2.273 3.997 4.612 3.997h29.963c2.339 0 4.267-1.739 4.612-3.997h3.863c2.302 0 4.175-1.873 4.175-4.175v-9.921c.001-2.264-1.911-4.176-4.174-4.176zm-13.91-32.136c0-.887.721-1.608 1.607-1.608h4.904c.871 0 1.607.736 1.607 1.608v15.676c-1.77-3.627-4.607-6.638-8.119-8.599v-7.077zm-12.927 2.919c0-1.871 1.51-3.394 3.366-3.394 1.871 0 3.394 1.522 3.394 3.394v1.978c-1.104-.193-2.234-.313-3.394-.313-1.149 0-2.271.12-3.366.31zm-4.166 12.309c.026.02.06.028.085.05l2.116 1.777c.401.347.589.755.589 1.284v7.313c0 .918-.746 1.665-1.664 1.665h-4.224c-.918 0-1.665-.747-1.665-1.665v-7.313c0-.529.188-.937.579-1.275l2.133-1.792c.016-.013.035-.018.051-.03v2.19h2zm-10.12-15.228c0-.872.736-1.608 1.607-1.608h4.904c.872 0 1.608.736 1.608 1.608v7.068c-3.513 1.96-6.351 4.973-8.12 8.603v-15.671zm8.12 9.406v3.649c-.489.135-.954.358-1.345.692l-2.136 1.795c-.839.724-1.282 1.691-1.282 2.797v7.313c0 2.021 1.645 3.665 3.665 3.665h4.224c2.021 0 3.664-1.644 3.664-3.665v-7.313c0-1.106-.443-2.074-1.292-2.806l-2.119-1.78c-.402-.344-.878-.57-1.379-.705v-4.75c2.288-1.087 4.836-1.714 7.532-1.714 9.749 0 17.68 7.932 17.68 17.681v6.802c-.762-.536-1.685-.857-2.685-.857h-29.962c-1 0-1.923.321-2.685.857v-6.802c0-6.232 3.243-11.709 8.12-14.859zm-16.086 36.826v-9.921c0-1.199.976-2.175 2.175-2.175h3.791v14.271h-3.791c-1.199 0-2.175-.975-2.175-2.175zm43.298 3.459c0 1.471-1.229 2.713-2.685 2.713h-29.962c-1.455 0-2.685-1.243-2.685-2.713v-14.797c0-1.48 1.204-2.685 2.685-2.685h29.963c1.48 0 2.685 1.205 2.685 2.685v14.797zm7.966-3.459c0 1.199-.976 2.175-2.175 2.175h-3.791v-14.271h3.791c1.179 0 2.175.996 2.175 2.175z"></path><path d="m22.907 44.364h19.093v2h-19.093z"></path><path d="m21.923 26.125h3.09v2h-3.09z"></path><path d="m21.923 29.611h3.09v2h-3.09z"></path></g></svg>