<?xml version='1.0' encoding='iso-8859-1'?>
<!DOCTYPE svg PUBLIC '-//W3C//DTD SVG 1.1//EN' 'http://www.w3.org/Graphics/SVG/1.1/DTD/svg11.dtd'>
<!-- Uploaded to: SVG Repo, www.svgrepo.com, Generator: SVG Repo Mixer Tools -->
<svg fill="#000000" height="800px" width="800px" version="1.1" xmlns="http://www.w3.org/2000/svg" viewBox="0 0 297 297" xmlns:xlink="http://www.w3.org/1999/xlink" enable-background="new 0 0 297 297">
  <g>
    <path d="M172.226,3c0-1.65-1.35-3-3-3h-41.51c-1.65,0-3,1.35-3,3v36.403c0,1.65,1.35,3,3,3h41.51c1.65,0,3-1.35,3-3V3z"/>
    <path d="M172.226,59.517c0-1.65-1.35-3-3-3h-41.51c-1.65,0-3,1.35-3,3v35.832c0,1.65,1.35,3,3,3h41.51c1.65,0,3-1.35,3-3V59.517z"/>
    <path d="M61.525,10.08v29.323c0,1.65,1.35,3,3,3h43.078c1.65,0,3-1.35,3-3V3c0-1.65-1.35-3-3-3H71.605   C66.039,0,61.525,4.514,61.525,10.08z"/>
    <path d="m235.412,10.08c0-5.566-4.514-10.08-10.08-10.08h-35.994c-1.65,0-3,1.35-3,3v36.403c0,1.65 1.35,3 3,3h43.074c1.65,0 3-1.35 3-3v-29.323z"/>
    <path d="m232.603,92.864c1.545-0.579 2.809-2.403 2.809-4.054v-29.293c0-1.65-1.35-3-3-3h-43.074c-1.65,0-3,1.35-3,3v35.832c0,1.65 1.35,3 3,3h25.648c1.65,0 4.264-0.475 5.809-1.054l11.808-4.431z"/>
    <path d="m274.496,179.259c-2.434-11.925-15.451-77.492-15.451-77.492-0.174-0.871-0.721-1.618-1.496-2.05-0.449-0.251-0.957-0.383-1.471-0.383-0.361,0-0.717,0.065-1.055,0.192l-122.988,46.142c-1.244,0.467-2.047,1.718-1.955,3.044 0.094,1.324 1.064,2.451 2.361,2.739 0,0 110.956,24.508 139.055,30.76 1.615,0.359 3.331-1.33 3-2.952z"/>
    <path d="m116.003,149.698c-0.381-5.422 1.896-10.614 5.836-14.083l-63.718-51.001c-0.533-0.426-1.207-0.662-1.893-0.662-0.313,0-0.621,0.048-0.92,0.144-0.963,0.307-1.707,1.074-1.986,2.05l-30.744,107.664c-0.318,1.117 0.039,2.333 0.908,3.1 0.863,0.759 2.135,0.965 3.19,0.512l92.145-39.51c-1.597-2.409-2.609-5.219-2.818-8.214z"/>
    <path d="m169.418,116.57c1.545-0.579 2.809-1.741 2.809-2.581 0-0.84-1.35-1.527-3-1.527h-41.51c-1.65,0-3,1.35-3,3v1.379c0,1.65 1.054,3.844 2.342,4.875l6.801,5.441c1.288,1.031 3.605,1.4 5.15,0.821l30.408-11.408z"/>
    <path d="m95.523,96.474c1.288,1.031 3.691,1.875 5.342,1.875h6.738c1.65,0 3-1.35 3-3v-35.832c0-1.65-1.35-3-3-3h-43.078c-1.65,0-3,1.35-3,3v8.192c0,1.65 0.854,3.359 1.899,3.798 1.045,0.438 4.566,2.933 5.854,3.964l26.245,21.003z"/>
    <path d="m46.15,204.426v82.494c0,5.566 4.514,10.08 10.08,10.08h184.477c5.568,0 10.082-4.514 10.082-10.08v-94.7l-116.018-25.794-88.621,38z"/>
  </g>
</svg>