<?xml version="1.0" encoding="utf-8"?>
<!-- Uploaded to: SVG Repo, www.svgrepo.com, Generator: SVG Repo Mixer Tools -->
<svg fill="#000000" height="800px" width="800px" version="1.2" baseProfile="tiny" id="Layer_1" xmlns="http://www.w3.org/2000/svg" xmlns:xlink="http://www.w3.org/1999/xlink"
	  viewBox="-351 153 256 256" xml:space="preserve">
<path id="_x31_" d="M-177.6,230.2h-0.3h-8.2h-14.4h-8.5h-0.1v0.3l-47.8,104.2l-24.5-40.4l-65,107.2h64.9l-0.1,0.2h117.9L-99,402
	L-177.6,230.2z M-273.2,328l-8.2-6.9l-8.2,2.9l-0.4-5.8l8.7-14.5l9.4,15.8L-273.2,328z M-176.5,295.7l-14.5-10.4l-17.4,13.7
	l-14.9-18.8l19.3-42.3h21.4l15.1,33.2L-176.5,295.7z M-293.2,166.3c16.8,0,30.4,13.6,30.4,30.4s-13.6,30.4-30.4,30.4
	c-16.8,0-30.3-13.6-30.3-30.4S-309.9,166.3-293.2,166.3z"/>
</svg>