<?xml version="1.0" encoding="iso-8859-1"?>
<!-- Uploaded to: SVG Repo, www.svgrepo.com, Generator: SVG Repo Mixer Tools -->
<!DOCTYPE svg PUBLIC "-//W3C//DTD SVG 1.1//EN" "http://www.w3.org/Graphics/SVG/1.1/DTD/svg11.dtd">
<svg fill="#000000" version="1.1" id="Capa_1" xmlns="http://www.w3.org/2000/svg" xmlns:xlink="http://www.w3.org/1999/xlink" 
	 width="800px" height="800px" viewBox="0 0 404.062 404.062"
	 xml:space="preserve">
<g>
	<g>
		<path d="M299.651,373.417H104.567c-18.083,0-32.798-14.718-32.798-32.805V204.58c-8.707-0.036-16.885-3.45-23.046-9.61
			L9.61,155.852C3.411,149.657,0,141.419,0,132.658c0-8.758,3.411-16.997,9.61-23.188l69.205-69.214
			c0.448-0.447,0.91-0.883,1.396-1.309c2.558-4.93,7.71-8.301,13.655-8.301h34.927c6.713,0,12.649,4.354,14.667,10.76
			c8.091,25.728,31.666,43.012,58.652,43.012c26.994,0,50.569-17.291,58.664-43.012c2.005-6.407,7.95-10.76,14.663-10.76h34.918
			c6.053,0,11.295,3.495,13.799,8.583c0.379,0.333,0.733,0.679,1.087,1.027l69.212,69.214c6.196,6.197,9.607,14.436,9.607,23.188
			c0,8.767-3.411,17.005-9.607,23.2l-39.128,39.112c-6.101,6.119-14.219,9.526-22.866,9.61v136.032
			C332.449,358.699,317.737,373.417,299.651,373.417z"/>
	</g>
</g>
</svg>